<svg xmlns="http://www.w3.org/2000/svg" viewBox="0 0 138 355"><title>coast_sq</title><g id="Layer_2" data-name="Layer 2"><g id="Layer_7" data-name="Layer 7"><rect x="31" y="109" width="60" height="60"/><rect x="93" y="78" width="14" height="14"/><rect x="62" y="171" width="29" height="29"/><rect x="62" y="202" width="29" height="29"/><rect x="108" y="78" width="14" height="14"/><rect x="124" y="47" width="14" height="14"/><rect x="62" y="233" width="14" height="14"/><rect x="46" y="171" width="14" height="14"/><rect x="124" y="62" width="14" height="14"/><rect x="93" y="124" width="14" height="14"/><rect x="31" y="171" width="14" height="14"/><rect x="46" y="186" width="14" height="14"/><rect x="46" y="202" width="14" height="14"/><rect x="93" y="139" width="14" height="14"/><rect y="140" width="29" height="29"/><rect x="31" y="78" width="29" height="29"/><rect y="109" width="29" height="29"/><rect x="46" y="217" width="14" height="14"/><rect x="77" y="31" width="14" height="14"/><rect x="46" y="248" width="14" height="14"/><rect x="46" y="233" width="14" height="14"/><rect x="15" y="93" width="14" height="14"/><rect x="77" y="93" width="14" height="14"/><rect x="31" y="62" width="14" height="14"/><rect x="46" y="62" width="14" height="14"/><rect x="77" y="47" width="14" height="14"/><rect x="46" y="31" width="14" height="14"/><rect x="62" y="62" width="14" height="14"/><rect x="15" y="78" width="14" height="14"/><rect x="62" y="31" width="14" height="14"/><rect x="46" y="47" width="14" height="14"/><rect x="62" y="47" width="14" height="14"/><rect x="124" y="31" width="14" height="14"/><rect x="93" y="93" width="14" height="14"/><rect x="93" y="109" width="14" height="14"/><rect x="77" y="16" width="14" height="14"/><rect x="46" y="16" width="14" height="14"/><rect x="62" y="16" width="14" height="14"/><rect x="77" width="14" height="14"/><rect x="62" width="14" height="14"/><rect x="62" y="326" width="14" height="14"/><rect x="46" y="264" width="14" height="14"/><rect x="46" y="279" width="14" height="14"/><rect x="46" y="295" width="14" height="14"/><rect x="46" y="310" width="14" height="14"/><rect x="46" y="341" width="14" height="14"/><rect x="46" y="326" width="14" height="14"/><rect x="62" y="248" width="14" height="14"/><rect x="62" y="264" width="14" height="14"/><rect x="62" y="279" width="14" height="14"/><rect x="62" y="295" width="14" height="14"/><rect x="62" y="310" width="14" height="14"/><rect x="30" y="264" width="14" height="14"/><rect x="30" y="279" width="14" height="14"/><rect x="62" y="341" width="14" height="14"/></g></g></svg>