<svg xmlns="http://www.w3.org/2000/svg" viewBox="0 0 267.6 255.34"><defs><style>.cls-1{fill:none;stroke:#000;stroke-linecap:round;stroke-linejoin:round;stroke-width:2px;}</style></defs><title>driftless</title><g id="Layer_2" data-name="Layer 2"><g id="Layer_2-2" data-name="Layer 2"><polygon class="cls-1" points="1 33.75 8.85 39.62 15.51 46.28 22.48 52.74 31.16 55.41 40.69 57.31 44.7 66.09 52.8 71.31 62.13 74.35 77.63 87.15 79.29 96.35 86.05 102.72 94 107.75 100.64 115.06 107.93 120.7 116.85 123.1 128.69 138.11 131.48 158.71 131.86 163.35 132.5 165.26 133.61 166.37 135.01 170.23 135.91 175.2 138.15 196.56 140.77 217.09 142 221.65 143.9 225.29 145.93 235.45 144.69 245.77 143.95 250.42 144.5 254.34 151.09 251.79 157.98 245.66 188.2 214.86 203.34 200.01 210.96 193.44 218.39 188.91 222.85 187.78 227.61 185.83 235.81 179.93 249.55 163.21 256.49 155.24 261.56 146.75 264.33 125.81 264.82 115.12 265.52 109.92 266.6 104.62 263.9 83.17 255.31 64.07 250.97 56.72 247.7 54.39 243.7 52.01 204.72 36.99 184.84 35.5 174.68 35.59 143.64 30.2 123.03 28.18 81.19 17.73 62.36 8.79 43.53 1 22.5 3.59 6.04 15.37 1 33.75 1 33.75"/></g></g></svg>