<svg xmlns="http://www.w3.org/2000/svg" viewBox="0 0 146.52 164.16"><defs><style>.cls-1{fill:none;stroke:#000;stroke-linecap:round;stroke-linejoin:round;stroke-width:2px;}</style></defs><title>watershed-yahara</title><g id="Layer_2" data-name="Layer 2"><g id="Layer_3" data-name="Layer 3"><polygon class="cls-1" points="126.32 17.02 118.96 9.89 113.37 6.12 106.32 3.02 94.4 1 83.89 2.04 75.6 4.58 70.32 7.02 61.02 13.42 52.98 21.89 46.87 31.92 43.32 43.02 41.36 63.81 38.32 71.02 36.46 73.78 14.23 97.66 7.99 107.15 3.32 118.02 1.35 127.07 1 134.65 1.56 140.41 3.37 147.69 5.02 151.78 7.57 155.74 11.32 159.02 18.98 160.61 116.51 163.16 118.8 162.86 121.32 162.02 124.58 159.83 127.05 156.89 128.9 153.51 135.47 132.15 137.3 118.06 135.77 96.24 136.32 93.02 137.74 89.37 139.59 86.55 143.32 82.02 145.41 76.95 145.52 70.63 135.07 31.37 131.38 23.83 126.32 17.02 126.32 17.02"/></g></g></svg>