<svg xmlns="http://www.w3.org/2000/svg" xmlns:xlink="http://www.w3.org/1999/xlink" version="1.1" id="Calque_1" x="0px" y="0px" width="90px" height="90px" viewBox="4.5 -9.0 90.0 121.5" enable-background="new 0 0 90 90" xml:space="preserve">
<defs>
  <style>
    * {
      stroke: #369;
      fill: #eee;
    }
  </style>
</defs>
<g>
	<path d="M73.312,69.377h-51.02v-51.02c0-2.113-1.714-3.827-3.827-3.827s-3.827,1.714-3.827,3.827v58.673h58.673   c2.113,0,3.827-1.714,3.827-3.827S75.424,69.377,73.312,69.377z"/>
	<path d="M78.952,26.052c-1.495-1.495-3.916-1.495-5.411,0L54.862,44.729L44.735,34.602L30.229,49.109   c-1.495,1.495-1.495,3.916,0,5.411c0.747,0.747,1.726,1.121,2.705,1.121s1.958-0.374,2.705-1.121l9.095-9.095l10.127,10.127   l24.09-24.088C80.447,29.969,80.447,27.547,78.952,26.052z"/>
</g>
</svg>
