<svg xmlns="http://www.w3.org/2000/svg" xmlns:xlink="http://www.w3.org/1999/xlink" version="1.1" id="Your_Icon" x="0px" y="0px" viewBox="5.0 -10.0 100.0 135.0" enable-background="new 0 0 100 100" xml:space="preserve" height="100px" width="100px">
<defs>
  <style>
    * {
      stroke: #369;
      fill: #eee;
    }
  </style>
</defs>
<g>
	<path d="M49.995,5c0,0-10.301,7.871-10.301,17.58c0,9.709,10.301,17.58,10.301,17.58s10.301-7.871,10.301-17.58   C60.296,12.871,49.995,5,49.995,5z"/>
	<path d="M64.875,31.743C57.203,34.53,53.94,44.929,53.94,44.929s9.177,5.881,16.849,3.094   c7.672-2.787,10.935-13.187,10.935-13.187S72.548,28.956,64.875,31.743z"/>
	<path d="M59.006,67.748c-3.592,3.306-2.996,9.796-2.996,9.796s6.419,1.131,10.011-2.174   c3.592-3.306,2.996-9.796,2.996-9.796S62.598,64.443,59.006,67.748z"/>
	<path d="M31.17,65.574c0,0-0.595,6.49,2.996,9.796c3.592,3.306,10.011,2.174,10.011,2.174s0.595-6.49-2.996-9.796   C37.589,64.443,31.17,65.574,31.17,65.574z"/>
	<path d="M35.125,31.743c-7.672-2.787-16.849,3.094-16.849,3.094s3.263,10.4,10.935,13.187   c7.672,2.787,16.849-3.094,16.849-3.094S42.797,34.53,35.125,31.743z"/>
	<path d="M49.995,45.885c-1.382,0-2.503,1.12-2.503,2.503v44.109c0,1.382,1.12,2.503,2.503,2.503   c1.382,0,2.503-1.12,2.503-2.503V48.388C52.497,47.006,51.377,45.885,49.995,45.885z"/>
</g>
</svg>
