<svg xmlns="http://www.w3.org/2000/svg" viewBox="0 0 321.41 223.05"><defs><style>.cls-1{fill:none;stroke:#000;stroke-linecap:round;stroke-linejoin:round;stroke-width:2px;}</style></defs><title>north-woods</title><g id="Layer_2" data-name="Layer 2"><g id="Layer_4" data-name="Layer 4"><polygon class="cls-1" points="254.16 88.36 288.05 101.72 292.33 104.32 296.29 107.45 300.16 111.36 304.56 116.95 308.13 122.75 310.97 128.68 314.91 140.59 320.38 175.8 320.41 182.31 319.79 188.83 318.32 195.25 315.84 201.46 312.16 207.36 310.4 209.54 307.33 212.69 302.92 216.18 300.21 217.85 297.16 219.36 293.35 220.75 289.62 221.62 285.93 222.05 278.57 221.9 258.13 219.23 228.24 218.15 223.16 217.36 215.38 215.42 208.79 212.77 202.66 209.26 125.87 155.76 112.03 148.15 105.87 145.5 99.97 143.58 94.16 142.36 84.88 141.52 76.86 141.72 57.12 144.38 50.92 144.56 44.37 143.69 37.16 141.36 31.11 138.36 25.49 134.63 20.33 130.27 15.69 125.38 11.61 120.05 8.13 114.37 5.3 108.44 3.16 102.36 1 87.36 2.72 73.25 7.27 60.31 13.62 48.83 20.73 39.11 33.04 26.09 44.25 17.36 53.27 11.95 62.93 7.36 72.92 3.85 82.95 1.64 92.69 1 101.87 2.16 110.16 5.36 112.43 6.82 132.78 22.67 254.16 88.36 254.16 88.36"/></g></g></svg>