<?xml version="1.0" encoding="utf-8"?>
<!-- Generator: Adobe Illustrator 23.0.1, SVG Export Plug-In . SVG Version: 6.00 Build 0)  -->
<svg version="1.1" xmlns="http://www.w3.org/2000/svg" xmlns:xlink="http://www.w3.org/1999/xlink" x="0px" y="0px"
	 viewBox="0 0 550 590" style="enable-background:new 0 0 550 590;" xml:space="preserve">
<style type="text/css">
	.st0{display:none;opacity:0.54;}
	.st1{display:inline;}
	.st2{fill:none;stroke:#777777;stroke-width:2;stroke-miterlimit:10;}
	.st3{display:none;opacity:0.5;}
	.st4{display:inline;fill:#663221;}
	.st5{display:inline;fill:#AAAAAA;}
	.st6{display:inline;fill:#CD506D;}
	.st7{display:inline;fill:#C7B52E;}
	.st8{display:inline;fill:#666D33;}
	.st9{display:inline;fill:#246683;}
	.st10{fill:#AAAAAA;}
</style>
<g id="Layer_1" class="st0">
	<title>wisconsin</title>
	<g class="st1">
		<g id="Layer_2-2">
			<polygon class="st2" points="393.2,571.1 223.5,570.1 219.1,569.2 216.6,565.6 213.4,558.4 207.7,553.6 200.3,551.7 193,549.3 
				186.1,545.7 181,540.1 180.3,533.3 178.7,527.2 171.5,508.4 180.4,480.6 174.5,473.4 167.4,458.9 164.7,441.2 163.6,426.2 
				161,410.9 155.7,402.8 149.9,395 144.7,391.9 138.8,390.5 132.7,386.6 127.4,381.8 115.7,372.5 108.5,359.8 99.4,347.4 
				84.6,341.4 68.6,326 53,322.5 33.3,305 32.1,299.2 34.1,292.8 35.3,279.1 32,266.1 34,261 35.6,254.8 35.7,244.2 38.8,234.2 
				42.9,227.4 44.5,219.8 40.8,212.1 36.1,204.9 25.3,202.1 24,194.9 25.8,187.6 34.9,174.6 38.1,166.3 44.6,160.5 51.4,156.5 
				58.8,154.3 62.3,150.7 68.1,149.7 68.8,149.5 69.4,149 71.5,144.6 74.1,140.6 75.3,134.4 74.9,80 79.2,70.5 82.8,68.1 86.4,65.3 
				88.7,60.7 92.5,60.6 105.1,67.1 118,63.9 178.4,43 187.1,36.1 197.4,32 203.6,39 200,48.9 195.9,53.4 194.8,57.1 196,60.9 
				194.1,65.3 191.4,70 191.6,77.4 200.3,74.9 209.5,69.5 234.3,82 250.8,88.8 255.5,95 258.4,102.5 267.2,110.8 345,132.8 
				357.9,138.7 370,146.3 375.3,148.2 380.6,149.1 386.5,152.2 390.8,151.7 394.9,150 398.5,150.5 401.9,151.9 420.6,155.4 
				434.9,165 435.2,167.2 434.3,169.2 432.1,171.2 432.1,173.9 439.3,177.5 449,181.4 452.3,181.8 459.7,187.8 460.4,188.9 
				460.6,190 459.1,194.5 461.4,198.4 460.6,201.2 459.8,203.1 460.2,208.6 459.6,214.3 454.4,223.4 456.6,231.7 465.6,230.1 
				472.5,229.4 469.8,239.7 465.9,250.9 472,258.2 476.4,265 475.7,268.1 475.2,271.2 470.1,275.7 462.5,277 458.1,279.6 457,284.7 
				453.3,294.7 446.8,303.7 441.4,317.2 443.1,329.8 447.8,331.6 451.5,329.4 461.5,320 469.4,310.4 474.1,300.9 480,293.6 
				485.3,293.8 491,290.3 492.5,289.7 497.8,295.4 501,302.5 496.1,313.5 490.5,324 487.1,335.7 482.9,356.5 485,365.3 484.1,372.6 
				478,377.6 473.6,383.5 471,390.5 467.5,402.3 466.4,414.6 467.9,425.9 465.9,437.3 462.3,449.5 453.1,473.3 451.6,486.4 
				453.8,498 452.2,509.2 452.1,512 453.8,514.4 459.7,534.3 462.8,540.9 461.5,547.4 460.1,561.8 454,571.4 393.2,571.3 
				393.2,571.1 			"/>
			<polygon class="st2" points="531.3,238.3 530.9,241.3 530.3,244.2 528.4,245.2 526.3,247.2 522.9,257.5 519.4,264.3 516.4,271.1 
				513.5,281.3 508.3,290.2 503.3,295.4 498.3,291.1 501.3,273.6 510.5,257.8 519.8,250.5 523.8,242.9 531.3,238.3 			"/>
		</g>
	</g>
</g>
<g id="Layer_2" class="st3">
	<polygon class="st4" points="232.9,543.7 219.9,543.7 213.4,555 219.9,566.2 232.9,566.2 239.4,555 	"/>
	<polygon class="st4" points="253.8,555.6 240.7,555.6 234.2,566.9 240.7,578.2 253.8,578.2 260.3,566.9 	"/>
	<polygon class="st4" points="274.6,543.7 261.6,543.7 255.1,555 261.6,566.2 274.6,566.2 281.1,555 	"/>
	<polygon class="st4" points="212,531.8 199,531.8 192.5,543 199,554.3 212,554.3 218.6,543 	"/>
	<polygon class="st4" points="232.9,519.8 219.9,519.8 213.4,531.1 219.9,542.4 232.9,542.4 239.4,531.1 	"/>
	<polygon class="st4" points="253.8,531.8 240.7,531.8 234.2,543 240.7,554.3 253.8,554.3 260.3,543 	"/>
	<polygon class="st4" points="274.6,519.8 261.6,519.8 255.1,531.1 261.6,542.4 274.6,542.4 281.1,531.1 	"/>
	<polygon class="st4" points="212,507.9 199,507.9 192.5,519.2 199,530.5 212,530.5 218.6,519.2 	"/>
	<polygon class="st4" points="232.9,496 219.9,496 213.4,507.3 219.9,518.6 232.9,518.6 239.4,507.3 	"/>
	<polygon class="st4" points="253.8,507.9 240.7,507.9 234.2,519.2 240.7,530.5 253.8,530.5 260.3,519.2 	"/>
	<polygon class="st4" points="274.6,496 261.6,496 255.1,507.3 261.6,518.6 274.6,518.6 281.1,507.3 	"/>
	<polygon class="st4" points="212,484.1 199,484.1 192.5,495.4 199,506.7 212,506.7 218.6,495.4 	"/>
	<polygon class="st4" points="232.9,472.2 219.9,472.2 213.4,483.5 219.9,494.8 232.9,494.8 239.4,483.5 	"/>
	<polygon class="st4" points="253.8,484.1 240.7,484.1 234.2,495.4 240.7,506.7 253.8,506.7 260.3,495.4 	"/>
	<polygon class="st4" points="274.6,472.2 261.6,472.2 255.1,483.5 261.6,494.8 274.6,494.8 281.1,483.5 	"/>
	<polygon class="st5" points="295.5,555.6 282.4,555.6 275.9,566.9 282.4,578.2 295.5,578.2 302,566.9 	"/>
	<polygon class="st5" points="316.3,543.7 303.3,543.7 296.8,555 303.3,566.2 316.3,566.2 322.8,555 	"/>
	<polygon class="st5" points="337.2,555.6 324.1,555.6 317.6,566.9 324.1,578.2 337.2,578.2 343.7,566.9 	"/>
	<polygon class="st5" points="358,543.7 345,543.7 338.5,555 345,566.2 358,566.2 364.5,555 	"/>
	<polygon class="st4" points="295.5,531.8 282.4,531.8 275.9,543 282.4,554.3 295.5,554.3 302,543 	"/>
	<polygon class="st5" points="316.3,519.8 303.3,519.8 296.8,531.1 303.3,542.4 316.3,542.4 322.8,531.1 	"/>
	<polygon class="st5" points="337.2,531.8 324.1,531.8 317.6,543 324.1,554.3 337.2,554.3 343.7,543 	"/>
	<polygon class="st6" points="358,519.8 345,519.8 338.5,531.1 345,542.4 358,542.4 364.5,531.1 	"/>
	<polygon class="st4" points="295.5,507.9 282.4,507.9 275.9,519.2 282.4,530.5 295.5,530.5 302,519.2 	"/>
	<polygon class="st6" points="316.3,496 303.3,496 296.8,507.3 303.3,518.6 316.3,518.6 322.8,507.3 	"/>
	<polygon class="st6" points="337.2,507.9 324.1,507.9 317.6,519.2 324.1,530.5 337.2,530.5 343.7,519.2 	"/>
	<polygon class="st6" points="358,496 345,496 338.5,507.3 345,518.6 358,518.6 364.5,507.3 	"/>
	<polygon class="st4" points="295.5,484.1 282.4,484.1 275.9,495.4 282.4,506.7 295.5,506.7 302,495.4 	"/>
	<polygon class="st6" points="316.3,472.2 303.3,472.2 296.8,483.5 303.3,494.8 316.3,494.8 322.8,483.5 	"/>
	<polygon class="st6" points="337.2,484.1 324.1,484.1 317.6,495.4 324.1,506.7 337.2,506.7 343.7,495.4 	"/>
	<polygon class="st6" points="358,472.2 345,472.2 338.5,483.5 345,494.8 358,494.8 364.5,483.5 	"/>
	<polygon class="st4" points="212,460.3 199,460.3 192.5,471.6 199,482.8 212,482.8 218.6,471.6 	"/>
	<polygon class="st4" points="232.9,448.3 219.9,448.3 213.4,459.6 219.9,470.9 232.9,470.9 239.4,459.6 	"/>
	<polygon class="st4" points="253.8,460.3 240.7,460.3 234.2,471.6 240.7,482.8 253.8,482.8 260.3,471.6 	"/>
	<polygon class="st4" points="274.6,448.3 261.6,448.3 255.1,459.6 261.6,470.9 274.6,470.9 281.1,459.6 	"/>
	<polygon class="st4" points="212,436.4 199,436.4 192.5,447.7 199,459 212,459 218.6,447.7 	"/>
	<polygon class="st4" points="232.9,424.5 219.9,424.5 213.4,435.8 219.9,447.1 232.9,447.1 239.4,435.8 	"/>
	<polygon class="st4" points="253.8,436.4 240.7,436.4 234.2,447.7 240.7,459 253.8,459 260.3,447.7 	"/>
	<polygon class="st4" points="274.6,424.5 261.6,424.5 255.1,435.8 261.6,447.1 274.6,447.1 281.1,435.8 	"/>
	<polygon class="st4" points="212,412.6 199,412.6 192.5,423.9 199,435.2 212,435.2 218.6,423.9 	"/>
	<polygon class="st4" points="232.9,400.7 219.9,400.7 213.4,412 219.9,423.3 232.9,423.3 239.4,412 	"/>
	<polygon class="st4" points="253.8,412.6 240.7,412.6 234.2,423.9 240.7,435.2 253.8,435.2 260.3,423.9 	"/>
	<polygon class="st7" points="274.6,400.7 261.6,400.7 255.1,412 261.6,423.3 274.6,423.3 281.1,412 	"/>
	<polygon class="st4" points="212,388.8 199,388.8 192.5,400.1 199,411.3 212,411.3 218.6,400.1 	"/>
	<polygon class="st4" points="232.9,376.9 219.9,376.9 213.4,388.1 219.9,399.4 232.9,399.4 239.4,388.1 	"/>
	<polygon class="st4" points="253.8,388.8 240.7,388.8 234.2,400.1 240.7,411.3 253.8,411.3 260.3,400.1 	"/>
	<polygon class="st7" points="274.6,376.9 261.6,376.9 255.1,388.1 261.6,399.4 274.6,399.4 281.1,388.1 	"/>
	<polygon class="st4" points="295.5,460.3 282.4,460.3 275.9,471.6 282.4,482.8 295.5,482.8 302,471.6 	"/>
	<polygon class="st6" points="316.3,448.3 303.3,448.3 296.8,459.6 303.3,470.9 316.3,470.9 322.8,459.6 	"/>
	<polygon class="st6" points="337.2,460.3 324.1,460.3 317.6,471.6 324.1,482.8 337.2,482.8 343.7,471.6 	"/>
	<polygon class="st6" points="358,448.3 345,448.3 338.5,459.6 345,470.9 358,470.9 364.5,459.6 	"/>
	<polygon class="st7" points="295.5,436.4 282.4,436.4 275.9,447.7 282.4,459 295.5,459 302,447.7 	"/>
	<polygon class="st6" points="316.3,424.5 303.3,424.5 296.8,435.8 303.3,447.1 316.3,447.1 322.8,435.8 	"/>
	<polygon class="st6" points="337.2,436.4 324.1,436.4 317.6,447.7 324.1,459 337.2,459 343.7,447.7 	"/>
	<polygon class="st6" points="358,424.5 345,424.5 338.5,435.8 345,447.1 358,447.1 364.5,435.8 	"/>
	<polygon class="st7" points="295.5,412.6 282.4,412.6 275.9,423.9 282.4,435.2 295.5,435.2 302,423.9 	"/>
	<polygon class="st7" points="316.3,400.7 303.3,400.7 296.8,412 303.3,423.3 316.3,423.3 322.8,412 	"/>
	<polygon class="st6" points="337.2,412.6 324.1,412.6 317.6,423.9 324.1,435.2 337.2,435.2 343.7,423.9 	"/>
	<polygon class="st6" points="358,400.7 345,400.7 338.5,412 345,423.3 358,423.3 364.5,412 	"/>
	<polygon class="st7" points="295.5,388.8 282.4,388.8 275.9,400.1 282.4,411.3 295.5,411.3 302,400.1 	"/>
	<polygon class="st7" points="316.3,376.9 303.3,376.9 296.8,388.1 303.3,399.4 316.3,399.4 322.8,388.1 	"/>
	<polygon class="st7" points="337.2,388.8 324.1,388.8 317.6,400.1 324.1,411.3 337.2,411.3 343.7,400.1 	"/>
	<polygon class="st5" points="358,376.9 345,376.9 338.5,388.1 345,399.4 358,399.4 364.5,388.1 	"/>
	<polygon class="st4" points="212,364.9 199,364.9 192.5,376.2 199,387.5 212,387.5 218.6,376.2 	"/>
	<polygon class="st7" points="232.9,353 219.9,353 213.4,364.3 219.9,375.6 232.9,375.6 239.4,364.3 	"/>
	<polygon class="st7" points="253.8,364.9 240.7,364.9 234.2,376.2 240.7,387.5 253.8,387.5 260.3,376.2 	"/>
	<polygon class="st7" points="274.6,353 261.6,353 255.1,364.3 261.6,375.6 274.6,375.6 281.1,364.3 	"/>
	<polygon class="st7" points="212,341.1 199,341.1 192.5,352.4 199,363.7 212,363.7 218.6,352.4 	"/>
	<polygon class="st7" points="232.9,329.2 219.9,329.2 213.4,340.5 219.9,351.8 232.9,351.8 239.4,340.5 	"/>
	<polygon class="st7" points="253.8,341.1 240.7,341.1 234.2,352.4 240.7,363.7 253.8,363.7 260.3,352.4 	"/>
	<polygon class="st7" points="274.6,329.2 261.6,329.2 255.1,340.5 261.6,351.8 274.6,351.8 281.1,340.5 	"/>
	<polygon class="st7" points="212,317.3 199,317.3 192.5,328.6 199,339.9 212,339.9 218.6,328.6 	"/>
	<polygon class="st7" points="232.9,305.4 219.9,305.4 213.4,316.7 219.9,327.9 232.9,327.9 239.4,316.7 	"/>
	<polygon class="st7" points="253.8,317.3 240.7,317.3 234.2,328.6 240.7,339.9 253.8,339.9 260.3,328.6 	"/>
	<polygon class="st7" points="274.6,305.4 261.6,305.4 255.1,316.7 261.6,327.9 274.6,327.9 281.1,316.7 	"/>
	<polygon class="st7" points="212,293.5 199,293.5 192.5,304.7 199,316 212,316 218.6,304.7 	"/>
	<polygon class="st5" points="232.9,281.5 219.9,281.5 213.4,292.8 219.9,304.1 232.9,304.1 239.4,292.8 	"/>
	<polygon class="st5" points="253.8,293.5 240.7,293.5 234.2,304.7 240.7,316 253.8,316 260.3,304.7 	"/>
	<polygon class="st5" points="274.6,281.5 261.6,281.5 255.1,292.8 261.6,304.1 274.6,304.1 281.1,292.8 	"/>
	<polygon class="st7" points="295.5,364.9 282.4,364.9 275.9,376.2 282.4,387.5 295.5,387.5 302,376.2 	"/>
	<polygon class="st7" points="316.3,353 303.3,353 296.8,364.3 303.3,375.6 316.3,375.6 322.8,364.3 	"/>
	<polygon class="st7" points="337.2,364.9 324.1,364.9 317.6,376.2 324.1,387.5 337.2,387.5 343.7,376.2 	"/>
	<polygon class="st5" points="358,353 345,353 338.5,364.3 345,375.6 358,375.6 364.5,364.3 	"/>
	<polygon class="st7" points="295.5,341.1 282.4,341.1 275.9,352.4 282.4,363.7 295.5,363.7 302,352.4 	"/>
	<polygon class="st7" points="316.3,329.2 303.3,329.2 296.8,340.5 303.3,351.8 316.3,351.8 322.8,340.5 	"/>
	<polygon class="st7" points="337.2,341.1 324.1,341.1 317.6,352.4 324.1,363.7 337.2,363.7 343.7,352.4 	"/>
	<polygon class="st5" points="358,329.2 345,329.2 338.5,340.5 345,351.8 358,351.8 364.5,340.5 	"/>
	<polygon class="st7" points="295.5,317.3 282.4,317.3 275.9,328.6 282.4,339.9 295.5,339.9 302,328.6 	"/>
	<polygon class="st7" points="316.3,305.4 303.3,305.4 296.8,316.7 303.3,327.9 316.3,327.9 322.8,316.7 	"/>
	<polygon class="st5" points="337.2,317.3 324.1,317.3 317.6,328.6 324.1,339.9 337.2,339.9 343.7,328.6 	"/>
	<polygon class="st5" points="358,305.4 345,305.4 338.5,316.7 345,327.9 358,327.9 364.5,316.7 	"/>
	<polygon class="st5" points="295.5,293.5 282.4,293.5 275.9,304.7 282.4,316 295.5,316 302,304.7 	"/>
	<polygon class="st5" points="316.3,281.5 303.3,281.5 296.8,292.8 303.3,304.1 316.3,304.1 322.8,292.8 	"/>
	<polygon class="st7" points="337.2,293.5 324.1,293.5 317.6,304.7 324.1,316 337.2,316 343.7,304.7 	"/>
	<polygon class="st5" points="358,281.5 345,281.5 338.5,292.8 345,304.1 358,304.1 364.5,292.8 	"/>
	<polygon class="st7" points="212,269.6 199,269.6 192.5,280.9 199,292.2 212,292.2 218.6,280.9 	"/>
	<polygon class="st5" points="232.9,257.7 219.9,257.7 213.4,269 219.9,280.3 232.9,280.3 239.4,269 	"/>
	<polygon class="st5" points="253.8,269.6 240.7,269.6 234.2,280.9 240.7,292.2 253.8,292.2 260.3,280.9 	"/>
	<polygon class="st5" points="274.6,257.7 261.6,257.7 255.1,269 261.6,280.3 274.6,280.3 281.1,269 	"/>
	<polygon class="st5" points="212,245.8 199,245.8 192.5,257.1 199,268.4 212,268.4 218.6,257.1 	"/>
	<polygon class="st5" points="232.9,233.9 219.9,233.9 213.4,245.2 219.9,256.5 232.9,256.5 239.4,245.2 	"/>
	<polygon class="st5" points="253.8,245.8 240.7,245.8 234.2,257.1 240.7,268.4 253.8,268.4 260.3,257.1 	"/>
	<polygon class="st5" points="274.6,233.9 261.6,233.9 255.1,245.2 261.6,256.5 274.6,256.5 281.1,245.2 	"/>
	<polygon class="st5" points="212,222 199,222 192.5,233.3 199,244.5 212,244.5 218.6,233.3 	"/>
	<polygon class="st5" points="232.9,210.1 219.9,210.1 213.4,221.3 219.9,232.6 232.9,232.6 239.4,221.3 	"/>
	<polygon class="st5" points="253.8,222 240.7,222 234.2,233.3 240.7,244.5 253.8,244.5 260.3,233.3 	"/>
	<polygon class="st5" points="274.6,210.1 261.6,210.1 255.1,221.3 261.6,232.6 274.6,232.6 281.1,221.3 	"/>
	<polygon class="st5" points="212,198.1 199,198.1 192.5,209.4 199,220.7 212,220.7 218.6,209.4 	"/>
	<polygon class="st8" points="232.9,186.2 219.9,186.2 213.4,197.5 219.9,208.8 232.9,208.8 239.4,197.5 	"/>
	<polygon class="st8" points="253.8,198.1 240.7,198.1 234.2,209.4 240.7,220.7 253.8,220.7 260.3,209.4 	"/>
	<polygon class="st8" points="274.6,186.2 261.6,186.2 255.1,197.5 261.6,208.8 274.6,208.8 281.1,197.5 	"/>
	<polygon class="st5" points="295.5,269.6 282.4,269.6 275.9,280.9 282.4,292.2 295.5,292.2 302,280.9 	"/>
	<polygon class="st5" points="316.3,257.7 303.3,257.7 296.8,269 303.3,280.3 316.3,280.3 322.8,269 	"/>
	<polygon class="st5" points="337.2,269.6 324.1,269.6 317.6,280.9 324.1,292.2 337.2,292.2 343.7,280.9 	"/>
	<polygon class="st5" points="358,257.7 345,257.7 338.5,269 345,280.3 358,280.3 364.5,269 	"/>
	<polygon class="st5" points="295.5,245.8 282.4,245.8 275.9,257.1 282.4,268.4 295.5,268.4 302,257.1 	"/>
	<polygon class="st5" points="316.3,233.9 303.3,233.9 296.8,245.2 303.3,256.5 316.3,256.5 322.8,245.2 	"/>
	<polygon class="st5" points="337.2,245.8 324.1,245.8 317.6,257.1 324.1,268.4 337.2,268.4 343.7,257.1 	"/>
	<polygon class="st5" points="358,233.9 345,233.9 338.5,245.2 345,256.5 358,256.5 364.5,245.2 	"/>
	<polygon class="st5" points="295.5,222 282.4,222 275.9,233.3 282.4,244.5 295.5,244.5 302,233.3 	"/>
	<polygon class="st5" points="316.3,210.1 303.3,210.1 296.8,221.3 303.3,232.6 316.3,232.6 322.8,221.3 	"/>
	<polygon class="st5" points="337.2,222 324.1,222 317.6,233.3 324.1,244.5 337.2,244.5 343.7,233.3 	"/>
	<polygon class="st8" points="358,210.1 345,210.1 338.5,221.3 345,232.6 358,232.6 364.5,221.3 	"/>
	<polygon class="st8" points="295.5,198.1 282.4,198.1 275.9,209.4 282.4,220.7 295.5,220.7 302,209.4 	"/>
	<polygon class="st8" points="316.3,186.2 303.3,186.2 296.8,197.5 303.3,208.8 316.3,208.8 322.8,197.5 	"/>
	<polygon class="st8" points="337.2,198.1 324.1,198.1 317.6,209.4 324.1,220.7 337.2,220.7 343.7,209.4 	"/>
	<polygon class="st8" points="358,186.2 345,186.2 338.5,197.5 345,208.8 358,208.8 364.5,197.5 	"/>
	<polygon class="st5" points="378.9,555.6 365.8,555.6 359.3,566.9 365.8,578.2 378.9,578.2 385.4,566.9 	"/>
	<polygon class="st5" points="399.7,543.7 386.7,543.7 380.2,555 386.7,566.2 399.7,566.2 406.2,555 	"/>
	<polygon class="st5" points="420.6,555.6 407.5,555.6 401,566.9 407.5,578.2 420.6,578.2 427.1,566.9 	"/>
	<polygon class="st9" points="441.4,543.7 428.4,543.7 421.9,555 428.4,566.2 441.4,566.2 447.9,555 	"/>
	<polygon class="st6" points="378.9,531.8 365.8,531.8 359.3,543 365.8,554.3 378.9,554.3 385.4,543 	"/>
	<polygon class="st5" points="399.7,519.8 386.7,519.8 380.2,531.1 386.7,542.4 399.7,542.4 406.2,531.1 	"/>
	<polygon class="st5" points="420.6,531.8 407.5,531.8 401,543 407.5,554.3 420.6,554.3 427.1,543 	"/>
	<polygon class="st9" points="441.4,519.8 428.4,519.8 421.9,531.1 428.4,542.4 441.4,542.4 447.9,531.1 	"/>
	<polygon class="st6" points="378.9,507.9 365.8,507.9 359.3,519.2 365.8,530.5 378.9,530.5 385.4,519.2 	"/>
	<polygon class="st5" points="399.7,496 386.7,496 380.2,507.3 386.7,518.6 399.7,518.6 406.2,507.3 	"/>
	<polygon class="st5" points="420.6,507.9 407.5,507.9 401,519.2 407.5,530.5 420.6,530.5 427.1,519.2 	"/>
	<polygon class="st9" points="441.4,496 428.4,496 421.9,507.3 428.4,518.6 441.4,518.6 447.9,507.3 	"/>
	<polygon class="st6" points="378.9,484.1 365.8,484.1 359.3,495.4 365.8,506.7 378.9,506.7 385.4,495.4 	"/>
	<polygon class="st5" points="399.7,472.2 386.7,472.2 380.2,483.5 386.7,494.8 399.7,494.8 406.2,483.5 	"/>
	<polygon class="st5" points="420.6,484.1 407.5,484.1 401,495.4 407.5,506.7 420.6,506.7 427.1,495.4 	"/>
	<polygon class="st9" points="441.4,472.2 428.4,472.2 421.9,483.5 428.4,494.8 441.4,494.8 447.9,483.5 	"/>
	<polygon class="st9" points="462.3,555.6 449.2,555.6 442.7,566.9 449.2,578.2 462.3,578.2 468.8,566.9 	"/>
	<polygon class="st9" points="462.3,531.8 449.2,531.8 442.7,543 449.2,554.3 462.3,554.3 468.8,543 	"/>
	<polygon class="st9" points="462.3,507.9 449.2,507.9 442.7,519.2 449.2,530.5 462.3,530.5 468.8,519.2 	"/>
	<polygon class="st6" points="378.9,460.3 365.8,460.3 359.3,471.6 365.8,482.8 378.9,482.8 385.4,471.6 	"/>
	<polygon class="st5" points="399.7,448.3 386.7,448.3 380.2,459.6 386.7,470.9 399.7,470.9 406.2,459.6 	"/>
	<polygon class="st5" points="420.6,460.3 407.5,460.3 401,471.6 407.5,482.8 420.6,482.8 427.1,471.6 	"/>
	<polygon class="st9" points="441.4,448.3 428.4,448.3 421.9,459.6 428.4,470.9 441.4,470.9 447.9,459.6 	"/>
	<polygon class="st6" points="378.9,436.4 365.8,436.4 359.3,447.7 365.8,459 378.9,459 385.4,447.7 	"/>
	<polygon class="st5" points="399.7,424.5 386.7,424.5 380.2,435.8 386.7,447.1 399.7,447.1 406.2,435.8 	"/>
	<polygon class="st5" points="420.6,436.4 407.5,436.4 401,447.7 407.5,459 420.6,459 427.1,447.7 	"/>
	<polygon class="st9" points="441.4,424.5 428.4,424.5 421.9,435.8 428.4,447.1 441.4,447.1 447.9,435.8 	"/>
	<polygon class="st6" points="378.9,412.6 365.8,412.6 359.3,423.9 365.8,435.2 378.9,435.2 385.4,423.9 	"/>
	<polygon class="st5" points="399.7,400.7 386.7,400.7 380.2,412 386.7,423.3 399.7,423.3 406.2,412 	"/>
	<polygon class="st5" points="420.6,412.6 407.5,412.6 401,423.9 407.5,435.2 420.6,435.2 427.1,423.9 	"/>
	<polygon class="st9" points="441.4,400.7 428.4,400.7 421.9,412 428.4,423.3 441.4,423.3 447.9,412 	"/>
	<polygon class="st5" points="378.9,388.8 365.8,388.8 359.3,400.1 365.8,411.3 378.9,411.3 385.4,400.1 	"/>
	<polygon class="st5" points="399.7,376.9 386.7,376.9 380.2,388.1 386.7,399.4 399.7,399.4 406.2,388.1 	"/>
	<polygon class="st5" points="420.6,388.8 407.5,388.8 401,400.1 407.5,411.3 420.6,411.3 427.1,400.1 	"/>
	<polygon class="st9" points="441.4,376.9 428.4,376.9 421.9,388.1 428.4,399.4 441.4,399.4 447.9,388.1 	"/>
	<polygon class="st9" points="462.3,460.3 449.2,460.3 442.7,471.6 449.2,482.8 462.3,482.8 468.8,471.6 	"/>
	<polygon class="st9" points="462.3,436.4 449.2,436.4 442.7,447.7 449.2,459 462.3,459 468.8,447.7 	"/>
	<polygon class="st9" points="462.3,412.6 449.2,412.6 442.7,423.9 449.2,435.2 462.3,435.2 468.8,423.9 	"/>
	<polygon class="st9" points="462.3,388.8 449.2,388.8 442.7,400.1 449.2,411.3 462.3,411.3 468.8,400.1 	"/>
	<polygon class="st5" points="378.9,364.9 365.8,364.9 359.3,376.2 365.8,387.5 378.9,387.5 385.4,376.2 	"/>
	<polygon class="st9" points="399.7,353 386.7,353 380.2,364.3 386.7,375.6 399.7,375.6 406.2,364.3 	"/>
	<polygon class="st5" points="420.6,364.9 407.5,364.9 401,376.2 407.5,387.5 420.6,387.5 427.1,376.2 	"/>
	<polygon class="st9" points="441.4,353 428.4,353 421.9,364.3 428.4,375.6 441.4,375.6 447.9,364.3 	"/>
	<polygon class="st5" points="378.9,341.1 365.8,341.1 359.3,352.4 365.8,363.7 378.9,363.7 385.4,352.4 	"/>
	<polygon class="st9" points="399.7,329.2 386.7,329.2 380.2,340.5 386.7,351.8 399.7,351.8 406.2,340.5 	"/>
	<polygon class="st9" points="420.6,341.1 407.5,341.1 401,352.4 407.5,363.7 420.6,363.7 427.1,352.4 	"/>
	<polygon class="st9" points="441.4,329.2 428.4,329.2 421.9,340.5 428.4,351.8 441.4,351.8 447.9,340.5 	"/>
	<polygon class="st5" points="378.9,317.3 365.8,317.3 359.3,328.6 365.8,339.9 378.9,339.9 385.4,328.6 	"/>
	<polygon class="st5" points="399.7,305.4 386.7,305.4 380.2,316.7 386.7,327.9 399.7,327.9 406.2,316.7 	"/>
	<polygon class="st9" points="420.6,317.3 407.5,317.3 401,328.6 407.5,339.9 420.6,339.9 427.1,328.6 	"/>
	<polygon class="st9" points="441.4,305.4 428.4,305.4 421.9,316.7 428.4,327.9 441.4,327.9 447.9,316.7 	"/>
	<polygon class="st5" points="378.9,293.5 365.8,293.5 359.3,304.7 365.8,316 378.9,316 385.4,304.7 	"/>
	<polygon class="st5" points="399.7,281.5 386.7,281.5 380.2,292.8 386.7,304.1 399.7,304.1 406.2,292.8 	"/>
	<polygon class="st9" points="420.6,293.5 407.5,293.5 401,304.7 407.5,316 420.6,316 427.1,304.7 	"/>
	<polygon class="st9" points="441.4,281.5 428.4,281.5 421.9,292.8 428.4,304.1 441.4,304.1 447.9,292.8 	"/>
	<polygon class="st9" points="462.3,364.9 449.2,364.9 442.7,376.2 449.2,387.5 462.3,387.5 468.8,376.2 	"/>
	<polygon class="st9" points="483.1,353 470.1,353 463.6,364.3 470.1,375.6 483.1,375.6 489.6,364.3 	"/>
	<polygon class="st9" points="462.3,341.1 449.2,341.1 442.7,352.4 449.2,363.7 462.3,363.7 468.8,352.4 	"/>
	<polygon class="st9" points="483.1,329.2 470.1,329.2 463.6,340.5 470.1,351.8 483.1,351.8 489.6,340.5 	"/>
	<polygon class="st9" points="462.3,317.3 449.2,317.3 442.7,328.6 449.2,339.9 462.3,339.9 468.8,328.6 	"/>
	<polygon class="st9" points="483.1,305.4 470.1,305.4 463.6,316.7 470.1,327.9 483.1,327.9 489.6,316.7 	"/>
	<polygon class="st9" points="504,293.5 490.9,293.5 484.4,304.7 490.9,316 504,316 510.5,304.7 	"/>
	<polygon class="st5" points="378.9,269.6 365.8,269.6 359.3,280.9 365.8,292.2 378.9,292.2 385.4,280.9 	"/>
	<polygon class="st5" points="399.7,257.7 386.7,257.7 380.2,269 386.7,280.3 399.7,280.3 406.2,269 	"/>
	<polygon class="st5" points="420.6,269.6 407.5,269.6 401,280.9 407.5,292.2 420.6,292.2 427.1,280.9 	"/>
	<polygon class="st9" points="441.4,257.7 428.4,257.7 421.9,269 428.4,280.3 441.4,280.3 447.9,269 	"/>
	<polygon class="st5" points="378.9,245.8 365.8,245.8 359.3,257.1 365.8,268.4 378.9,268.4 385.4,257.1 	"/>
	<polygon class="st5" points="399.7,233.9 386.7,233.9 380.2,245.2 386.7,256.5 399.7,256.5 406.2,245.2 	"/>
	<polygon class="st5" points="420.6,245.8 407.5,245.8 401,257.1 407.5,268.4 420.6,268.4 427.1,257.1 	"/>
	<polygon class="st5" points="441.4,233.9 428.4,233.9 421.9,245.2 428.4,256.5 441.4,256.5 447.9,245.2 	"/>
	<polygon class="st5" points="378.9,222 365.8,222 359.3,233.3 365.8,244.5 378.9,244.5 385.4,233.3 	"/>
	<polygon class="st5" points="399.7,210.1 386.7,210.1 380.2,221.3 386.7,232.6 399.7,232.6 406.2,221.3 	"/>
	<polygon class="st5" points="420.6,222 407.5,222 401,233.3 407.5,244.5 420.6,244.5 427.1,233.3 	"/>
	<polygon class="st5" points="441.4,210.1 428.4,210.1 421.9,221.3 428.4,232.6 441.4,232.6 447.9,221.3 	"/>
	<polygon class="st8" points="378.9,198.1 365.8,198.1 359.3,209.4 365.8,220.7 378.9,220.7 385.4,209.4 	"/>
	<polygon class="st8" points="399.7,186.2 386.7,186.2 380.2,197.5 386.7,208.8 399.7,208.8 406.2,197.5 	"/>
	<polygon class="st5" points="420.6,198.1 407.5,198.1 401,209.4 407.5,220.7 420.6,220.7 427.1,209.4 	"/>
	<polygon class="st5" points="441.4,186.2 428.4,186.2 421.9,197.5 428.4,208.8 441.4,208.8 447.9,197.5 	"/>
	<polygon class="st9" points="462.3,269.6 449.2,269.6 442.7,280.9 449.2,292.2 462.3,292.2 468.8,280.9 	"/>
	<polygon class="st9" points="504,269.6 490.9,269.6 484.4,280.9 490.9,292.2 504,292.2 510.5,280.9 	"/>
	<polygon class="st9" points="524.8,257.7 511.8,257.7 505.3,269 511.8,280.3 524.8,280.3 531.3,269 	"/>
	<polygon class="st9" points="462.3,245.8 449.2,245.8 442.7,257.1 449.2,268.4 462.3,268.4 468.8,257.1 	"/>
	<polygon class="st9" points="524.8,233.9 511.8,233.9 505.3,245.2 511.8,256.5 524.8,256.5 531.3,245.2 	"/>
	<polygon class="st9" points="462.3,222 449.2,222 442.7,233.3 449.2,244.5 462.3,244.5 468.8,233.3 	"/>
	<polygon class="st5" points="462.3,198.1 449.2,198.1 442.7,209.4 449.2,220.7 462.3,220.7 468.8,209.4 	"/>
	<polygon class="st8" points="212,174.1 199,174.1 192.5,185.4 199,196.7 212,196.7 218.5,185.4 	"/>
	<polygon class="st8" points="232.9,162.2 219.9,162.2 213.3,173.5 219.9,184.8 232.9,184.8 239.4,173.5 	"/>
	<polygon class="st8" points="253.7,174.1 240.7,174.1 234.2,185.4 240.7,196.7 253.7,196.7 260.3,185.4 	"/>
	<polygon class="st8" points="274.6,162.2 261.6,162.2 255,173.5 261.6,184.8 274.6,184.8 281.1,173.5 	"/>
	<polygon class="st8" points="212,150.3 199,150.3 192.5,161.6 199,172.9 212,172.9 218.5,161.6 	"/>
	<polygon class="st8" points="232.9,138.4 219.9,138.4 213.3,149.7 219.9,160.9 232.9,160.9 239.4,149.7 	"/>
	<polygon class="st8" points="253.7,150.3 240.7,150.3 234.2,161.6 240.7,172.9 253.7,172.9 260.3,161.6 	"/>
	<polygon class="st8" points="274.6,138.4 261.6,138.4 255,149.7 261.6,160.9 274.6,160.9 281.1,149.7 	"/>
	<polygon class="st8" points="212,126.5 199,126.5 192.5,137.7 199,149 212,149 218.5,137.7 	"/>
	<polygon class="st8" points="232.9,114.5 219.9,114.5 213.3,125.8 219.9,137.1 232.9,137.1 239.4,125.8 	"/>
	<polygon class="st8" points="253.7,126.5 240.7,126.5 234.2,137.7 240.7,149 253.7,149 260.3,137.7 	"/>
	<polygon class="st8" points="274.6,114.5 261.6,114.5 255,125.8 261.6,137.1 274.6,137.1 281.1,125.8 	"/>
	<polygon class="st8" points="212,102.6 199,102.6 192.5,113.9 199,125.2 212,125.2 218.5,113.9 	"/>
	<polygon class="st8" points="232.9,90.7 219.9,90.7 213.3,102 219.9,113.3 232.9,113.3 239.4,102 	"/>
	<polygon class="st8" points="253.7,102.6 240.7,102.6 234.2,113.9 240.7,125.2 253.7,125.2 260.3,113.9 	"/>
	<polygon class="st8" points="295.4,174.1 282.4,174.1 275.9,185.4 282.4,196.7 295.4,196.7 302,185.4 	"/>
	<polygon class="st8" points="316.3,162.2 303.3,162.2 296.7,173.5 303.3,184.8 316.3,184.8 322.8,173.5 	"/>
	<polygon class="st8" points="337.1,174.1 324.1,174.1 317.6,185.4 324.1,196.7 337.1,196.7 343.7,185.4 	"/>
	<polygon class="st8" points="358,162.2 345,162.2 338.4,173.5 345,184.8 358,184.8 364.5,173.5 	"/>
	<polygon class="st8" points="295.4,150.3 282.4,150.3 275.9,161.6 282.4,172.9 295.4,172.9 302,161.6 	"/>
	<polygon class="st8" points="316.3,138.4 303.3,138.4 296.7,149.7 303.3,160.9 316.3,160.9 322.8,149.7 	"/>
	<polygon class="st8" points="337.1,150.3 324.1,150.3 317.6,161.6 324.1,172.9 337.1,172.9 343.7,161.6 	"/>
	<polygon class="st8" points="358,138.4 345,138.4 338.4,149.7 345,160.9 358,160.9 364.5,149.7 	"/>
	<polygon class="st8" points="295.4,126.5 282.4,126.5 275.9,137.7 282.4,149 295.4,149 302,137.7 	"/>
	<polygon class="st8" points="316.3,114.5 303.3,114.5 296.7,125.8 303.3,137.1 316.3,137.1 322.8,125.8 	"/>
	<polygon class="st8" points="337.1,126.5 324.1,126.5 317.6,137.7 324.1,149 337.1,149 343.7,137.7 	"/>
	<polygon class="st8" points="295.4,102.6 282.4,102.6 275.9,113.9 282.4,125.2 295.4,125.2 302,113.9 	"/>
	<polygon class="st5" points="212,78.8 199,78.8 192.5,90.1 199,101.4 212,101.4 218.5,90.1 	"/>
	<polygon class="st5" points="232.9,66.9 219.9,66.9 213.3,78.2 219.9,89.5 232.9,89.5 239.4,78.2 	"/>
	<polygon class="st8" points="253.7,78.8 240.7,78.8 234.2,90.1 240.7,101.4 253.7,101.4 260.3,90.1 	"/>
	<polygon class="st8" points="378.8,174.1 365.8,174.1 359.3,185.4 365.8,196.7 378.8,196.7 385.4,185.4 	"/>
	<polygon class="st8" points="399.7,162.2 386.7,162.2 380.1,173.5 386.7,184.8 399.7,184.8 406.2,173.5 	"/>
	<polygon class="st8" points="420.5,174.1 407.5,174.1 401,185.4 407.5,196.7 420.5,196.7 427.1,185.4 	"/>
	<polygon class="st5" points="441.4,162.2 428.4,162.2 421.8,173.5 428.4,184.8 441.4,184.8 447.9,173.5 	"/>
	<polygon class="st8" points="378.8,150.3 365.8,150.3 359.3,161.6 365.8,172.9 378.8,172.9 385.4,161.6 	"/>
	<polygon class="st8" points="399.7,138.4 386.7,138.4 380.1,149.7 386.7,160.9 399.7,160.9 406.2,149.7 	"/>
	<polygon class="st8" points="420.5,150.3 407.5,150.3 401,161.6 407.5,172.9 420.5,172.9 427.1,161.6 	"/>
	<polygon class="st5" points="462.2,174.1 449.2,174.1 442.7,185.4 449.2,196.7 462.2,196.7 468.8,185.4 	"/>
	<polygon class="st4" points="191.3,519.8 178.3,519.8 171.8,531.1 178.3,542.4 191.3,542.4 197.8,531.1 	"/>
	<polygon class="st4" points="191.3,496 178.3,496 171.8,507.3 178.3,518.6 191.3,518.6 197.8,507.3 	"/>
	<polygon class="st4" points="191.3,472.2 178.3,472.2 171.8,483.5 178.3,494.8 191.3,494.8 197.8,483.5 	"/>
	<polygon class="st4" points="191.3,448.3 178.3,448.3 171.8,459.6 178.3,470.9 191.3,470.9 197.8,459.6 	"/>
	<polygon class="st4" points="170.5,436.4 157.4,436.4 150.9,447.7 157.4,459 170.5,459 177,447.7 	"/>
	<polygon class="st4" points="191.3,424.5 178.3,424.5 171.8,435.8 178.3,447.1 191.3,447.1 197.8,435.8 	"/>
	<polygon class="st4" points="170.5,412.6 157.4,412.6 150.9,423.9 157.4,435.2 170.5,435.2 177,423.9 	"/>
	<polygon class="st4" points="191.3,400.7 178.3,400.7 171.8,412 178.3,423.3 191.3,423.3 197.8,412 	"/>
	<polygon class="st4" points="149.6,376.9 136.6,376.9 130.1,388.1 136.6,399.4 149.6,399.4 156.1,388.1 	"/>
	<polygon class="st4" points="170.5,388.8 157.4,388.8 150.9,400.1 157.4,411.3 170.5,411.3 177,400.1 	"/>
	<polygon class="st4" points="191.3,376.9 178.3,376.9 171.8,388.1 178.3,399.4 191.3,399.4 197.8,388.1 	"/>
	<polygon class="st4" points="107.9,329.2 94.9,329.2 88.4,340.5 94.9,351.8 107.9,351.8 114.4,340.5 	"/>
	<polygon class="st4" points="66.2,305.4 53.2,305.4 46.7,316.7 53.2,327.9 66.2,327.9 72.7,316.7 	"/>
	<polygon class="st4" points="87.1,317.3 74,317.3 67.5,328.6 74,339.9 87.1,339.9 93.6,328.6 	"/>
	<polygon class="st4" points="107.9,305.4 94.9,305.4 88.4,316.7 94.9,327.9 107.9,327.9 114.4,316.7 	"/>
	<polygon class="st4" points="45.3,293.5 32.3,293.5 25.8,304.7 32.3,316 45.3,316 51.9,304.7 	"/>
	<polygon class="st5" points="66.2,281.5 53.2,281.5 46.7,292.8 53.2,304.1 66.2,304.1 72.7,292.8 	"/>
	<polygon class="st4" points="87.1,293.5 74,293.5 67.5,304.7 74,316 87.1,316 93.6,304.7 	"/>
	<polygon class="st4" points="107.9,281.5 94.9,281.5 88.4,292.8 94.9,304.1 107.9,304.1 114.4,292.8 	"/>
	<polygon class="st4" points="128.8,364.9 115.7,364.9 109.2,376.2 115.7,387.5 128.8,387.5 135.3,376.2 	"/>
	<polygon class="st4" points="149.6,353 136.6,353 130.1,364.3 136.6,375.6 149.6,375.6 156.1,364.3 	"/>
	<polygon class="st4" points="170.5,364.9 157.4,364.9 150.9,376.2 157.4,387.5 170.5,387.5 177,376.2 	"/>
	<polygon class="st4" points="191.3,353 178.3,353 171.8,364.3 178.3,375.6 191.3,375.6 197.8,364.3 	"/>
	<polygon class="st4" points="128.8,341.1 115.7,341.1 109.2,352.4 115.7,363.7 128.8,363.7 135.3,352.4 	"/>
	<polygon class="st4" points="149.6,329.2 136.6,329.2 130.1,340.5 136.6,351.8 149.6,351.8 156.1,340.5 	"/>
	<polygon class="st4" points="170.5,341.1 157.4,341.1 150.9,352.4 157.4,363.7 170.5,363.7 177,352.4 	"/>
	<polygon class="st4" points="191.3,329.2 178.3,329.2 171.8,340.5 178.3,351.8 191.3,351.8 197.8,340.5 	"/>
	<polygon class="st4" points="128.8,317.3 115.7,317.3 109.2,328.6 115.7,339.9 128.8,339.9 135.3,328.6 	"/>
	<polygon class="st4" points="149.6,305.4 136.6,305.4 130.1,316.7 136.6,327.9 149.6,327.9 156.1,316.7 	"/>
	<polygon class="st4" points="170.5,317.3 157.4,317.3 150.9,328.6 157.4,339.9 170.5,339.9 177,328.6 	"/>
	<polygon class="st4" points="191.3,305.4 178.3,305.4 171.8,316.7 178.3,327.9 191.3,327.9 197.8,316.7 	"/>
	<polygon class="st4" points="128.8,293.5 115.7,293.5 109.2,304.7 115.7,316 128.8,316 135.3,304.7 	"/>
	<polygon class="st5" points="149.6,281.5 136.6,281.5 130.1,292.8 136.6,304.1 149.6,304.1 156.1,292.8 	"/>
	<polygon class="st5" points="170.5,293.5 157.4,293.5 150.9,304.7 157.4,316 170.5,316 177,304.7 	"/>
	<polygon class="st7" points="191.3,281.5 178.3,281.5 171.8,292.8 178.3,304.1 191.3,304.1 197.8,292.8 	"/>
	<polygon class="st5" points="45.3,269.6 32.3,269.6 25.8,280.9 32.3,292.2 45.3,292.2 51.9,280.9 	"/>
	<polygon class="st5" points="66.2,257.7 53.2,257.7 46.7,269 53.2,280.3 66.2,280.3 72.7,269 	"/>
	<polygon class="st5" points="87.1,269.6 74,269.6 67.5,280.9 74,292.2 87.1,292.2 93.6,280.9 	"/>
	<polygon class="st4" points="107.9,257.7 94.9,257.7 88.4,269 94.9,280.3 107.9,280.3 114.4,269 	"/>
	<polygon class="st5" points="45.3,245.8 32.3,245.8 25.8,257.1 32.3,268.4 45.3,268.4 51.9,257.1 	"/>
	<polygon class="st5" points="66.2,233.9 53.2,233.9 46.7,245.2 53.2,256.5 66.2,256.5 72.7,245.2 	"/>
	<polygon class="st5" points="87.1,245.8 74,245.8 67.5,257.1 74,268.4 87.1,268.4 93.6,257.1 	"/>
	<polygon class="st5" points="107.9,233.9 94.9,233.9 88.4,245.2 94.9,256.5 107.9,256.5 114.4,245.2 	"/>
	<polygon class="st5" points="45.3,222 32.3,222 25.8,233.3 32.3,244.5 45.3,244.5 51.9,233.3 	"/>
	<polygon class="st5" points="66.2,210.1 53.2,210.1 46.7,221.3 53.2,232.6 66.2,232.6 72.7,221.3 	"/>
	<polygon class="st5" points="87.1,222 74,222 67.5,233.3 74,244.5 87.1,244.5 93.6,233.3 	"/>
	<polygon class="st5" points="107.9,210.1 94.9,210.1 88.4,221.3 94.9,232.6 107.9,232.6 114.4,221.3 	"/>
	<polygon class="st5" points="45.3,198.1 32.3,198.1 25.8,209.4 32.3,220.7 45.3,220.7 51.9,209.4 	"/>
	<polygon class="st5" points="66.2,186.2 53.2,186.2 46.7,197.5 53.2,208.8 66.2,208.8 72.7,197.5 	"/>
	<polygon class="st5" points="87.1,198.1 74,198.1 67.5,209.4 74,220.7 87.1,220.7 93.6,209.4 	"/>
	<polygon class="st5" points="107.9,186.2 94.9,186.2 88.4,197.5 94.9,208.8 107.9,208.8 114.4,197.5 	"/>
	<polygon class="st4" points="128.8,269.6 115.7,269.6 109.2,280.9 115.7,292.2 128.8,292.2 135.3,280.9 	"/>
	<polygon class="st5" points="149.6,257.7 136.6,257.7 130.1,269 136.6,280.3 149.6,280.3 156.1,269 	"/>
	<polygon class="st5" points="170.5,269.6 157.4,269.6 150.9,280.9 157.4,292.2 170.5,292.2 177,280.9 	"/>
	<polygon class="st7" points="191.3,257.7 178.3,257.7 171.8,269 178.3,280.3 191.3,280.3 197.8,269 	"/>
	<polygon class="st5" points="128.8,245.8 115.7,245.8 109.2,257.1 115.7,268.4 128.8,268.4 135.3,257.1 	"/>
	<polygon class="st5" points="149.6,233.9 136.6,233.9 130.1,245.2 136.6,256.5 149.6,256.5 156.1,245.2 	"/>
	<polygon class="st5" points="170.5,245.8 157.4,245.8 150.9,257.1 157.4,268.4 170.5,268.4 177,257.1 	"/>
	<polygon class="st5" points="191.3,233.9 178.3,233.9 171.8,245.2 178.3,256.5 191.3,256.5 197.8,245.2 	"/>
	<polygon class="st5" points="128.8,222 115.7,222 109.2,233.3 115.7,244.5 128.8,244.5 135.3,233.3 	"/>
	<polygon class="st5" points="149.6,210.1 136.6,210.1 130.1,221.3 136.6,232.6 149.6,232.6 156.1,221.3 	"/>
	<polygon class="st5" points="170.5,222 157.4,222 150.9,233.3 157.4,244.5 170.5,244.5 177,233.3 	"/>
	<polygon class="st5" points="191.3,210.1 178.3,210.1 171.8,221.3 178.3,232.6 191.3,232.6 197.8,221.3 	"/>
	<polygon class="st5" points="128.8,198.1 115.7,198.1 109.2,209.4 115.7,220.7 128.8,220.7 135.3,209.4 	"/>
	<polygon class="st5" points="149.6,186.2 136.6,186.2 130.1,197.5 136.6,208.8 149.6,208.8 156.1,197.5 	"/>
	<polygon class="st8" points="170.5,198.1 157.4,198.1 150.9,209.4 157.4,220.7 170.5,220.7 177,209.4 	"/>
	<polygon class="st8" points="191.3,186.2 178.3,186.2 171.8,197.5 178.3,208.8 191.3,208.8 197.8,197.5 	"/>
	<polygon class="st5" points="45.3,174.1 32.3,174.1 25.8,185.4 32.3,196.7 45.3,196.7 51.8,185.4 	"/>
	<polygon class="st5" points="66.2,162.2 53.2,162.2 46.6,173.5 53.2,184.8 66.2,184.8 72.7,173.5 	"/>
	<polygon class="st5" points="87,174.1 74,174.1 67.5,185.4 74,196.7 87,196.7 93.6,185.4 	"/>
	<polygon class="st5" points="107.9,162.2 94.9,162.2 88.3,173.5 94.9,184.8 107.9,184.8 114.4,173.5 	"/>
	<polygon class="st5" points="66.2,138.4 53.2,138.4 46.6,149.7 53.2,160.9 66.2,160.9 72.7,149.7 	"/>
	<polygon class="st5" points="87,150.3 74,150.3 67.5,161.6 74,172.9 87,172.9 93.6,161.6 	"/>
	<polygon class="st5" points="107.9,138.4 94.9,138.4 88.3,149.7 94.9,160.9 107.9,160.9 114.4,149.7 	"/>
	<polygon class="st5" points="87,126.5 74,126.5 67.5,137.7 74,149 87,149 93.6,137.7 	"/>
	<polygon class="st5" points="107.9,114.5 94.9,114.5 88.3,125.8 94.9,137.1 107.9,137.1 114.4,125.8 	"/>
	<polygon class="st5" points="87,102.6 74,102.6 67.5,113.9 74,125.2 87,125.2 93.6,113.9 	"/>
	<polygon class="st5" points="107.9,90.7 94.9,90.7 88.3,102 94.9,113.3 107.9,113.3 114.4,102 	"/>
	<polygon class="st5" points="128.7,174.1 115.7,174.1 109.2,185.4 115.7,196.7 128.7,196.7 135.3,185.4 	"/>
	<polygon class="st5" points="149.6,162.2 136.6,162.2 130,173.5 136.6,184.8 149.6,184.8 156.1,173.5 	"/>
	<polygon class="st8" points="170.4,174.1 157.4,174.1 150.9,185.4 157.4,196.7 170.4,196.7 177,185.4 	"/>
	<polygon class="st8" points="191.3,162.2 178.3,162.2 171.7,173.5 178.3,184.8 191.3,184.8 197.8,173.5 	"/>
	<polygon class="st5" points="128.7,150.3 115.7,150.3 109.2,161.6 115.7,172.9 128.7,172.9 135.3,161.6 	"/>
	<polygon class="st5" points="149.6,138.4 136.6,138.4 130,149.7 136.6,160.9 149.6,160.9 156.1,149.7 	"/>
	<polygon class="st8" points="170.4,150.3 157.4,150.3 150.9,161.6 157.4,172.9 170.4,172.9 177,161.6 	"/>
	<polygon class="st8" points="191.3,138.4 178.3,138.4 171.7,149.7 178.3,160.9 191.3,160.9 197.8,149.7 	"/>
	<polygon class="st5" points="128.7,126.5 115.7,126.5 109.2,137.7 115.7,149 128.7,149 135.3,137.7 	"/>
	<polygon class="st8" points="149.6,114.5 136.6,114.5 130,125.8 136.6,137.1 149.6,137.1 156.1,125.8 	"/>
	<polygon class="st8" points="170.4,126.5 157.4,126.5 150.9,137.7 157.4,149 170.4,149 177,137.7 	"/>
	<polygon class="st8" points="191.3,114.5 178.3,114.5 171.7,125.8 178.3,137.1 191.3,137.1 197.8,125.8 	"/>
	<polygon class="st5" points="128.7,102.6 115.7,102.6 109.2,113.9 115.7,125.2 128.7,125.2 135.3,113.9 	"/>
	<polygon class="st5" points="149.6,90.7 136.6,90.7 130,102 136.6,113.3 149.6,113.3 156.1,102 	"/>
	<polygon class="st8" points="170.4,102.6 157.4,102.6 150.9,113.9 157.4,125.2 170.4,125.2 177,113.9 	"/>
	<polygon class="st5" points="191.3,90.7 178.3,90.7 171.7,102 178.3,113.3 191.3,113.3 197.8,102 	"/>
	<polygon class="st5" points="87,78.8 74,78.8 67.5,90.1 74,101.4 87,101.4 93.6,90.1 	"/>
	<polygon class="st5" points="107.9,66.9 94.9,66.9 88.3,78.2 94.9,89.5 107.9,89.5 114.4,78.2 	"/>
	<polygon class="st5" points="128.7,78.8 115.7,78.8 109.2,90.1 115.7,101.4 128.7,101.4 135.3,90.1 	"/>
	<polygon class="st5" points="149.6,66.9 136.6,66.9 130,78.2 136.6,89.5 149.6,89.5 156.1,78.2 	"/>
	<polygon class="st5" points="170.4,78.8 157.4,78.8 150.9,90.1 157.4,101.4 170.4,101.4 177,90.1 	"/>
	<polygon class="st5" points="191.3,66.9 178.3,66.9 171.7,78.2 178.3,89.5 191.3,89.5 197.8,78.2 	"/>
	<polygon class="st5" points="128.7,55 115.7,55 109.2,66.3 115.7,77.5 128.7,77.5 135.3,66.3 	"/>
	<polygon class="st5" points="149.6,43.1 136.6,43.1 130,54.3 136.6,65.6 149.6,65.6 156.1,54.3 	"/>
	<polygon class="st5" points="170.4,55 157.4,55 150.9,66.3 157.4,77.5 170.4,77.5 177,66.3 	"/>
	<polygon class="st5" points="191.3,43.1 178.3,43.1 171.7,54.3 178.3,65.6 191.3,65.6 197.8,54.3 	"/>
	<polygon class="st5" points="86.9,54.9 73.9,54.9 67.3,66.2 73.9,77.5 86.9,77.5 93.4,66.2 	"/>
	<polygon class="st5" points="212.3,31.1 199.3,31.1 192.7,42.3 199.3,53.6 212.3,53.6 218.8,42.3 	"/>
</g>
<g id="Layer_3">
	<rect x="160" y="360" class="st10" width="60" height="60"/>
	<rect x="160" y="422" class="st10" width="60" height="60"/>
	<rect x="222" y="422" class="st10" width="60" height="60"/>
	<rect x="98" y="298" class="st10" width="60" height="60"/>
	<rect x="222" y="375" class="st10" width="14" height="14"/>
	<rect x="222" y="484" class="st10" width="60" height="60"/>
	<rect x="191" y="484" class="st10" width="29" height="29"/>
	<rect x="191" y="515" class="st10" width="29" height="29"/>
	<rect x="222" y="391" class="st10" width="29" height="29"/>
	<rect x="129" y="360" class="st10" width="29" height="29"/>
	<rect x="253" y="406" class="st10" width="14" height="14"/>
	<rect x="144" y="391" class="st10" width="14" height="14"/>
	<rect x="113" y="360" class="st10" width="14" height="14"/>
	<rect x="175" y="484" class="st10" width="14" height="14"/>
	<rect x="175" y="499" class="st10" width="14" height="14"/>
	<rect x="175" y="515" class="st10" width="14" height="14"/>
	<rect x="206" y="546" class="st10" width="14" height="14"/>
	<rect x="222" y="546" class="st10" width="29" height="29"/>
	<rect x="253" y="546" class="st10" width="29" height="29"/>
	<rect x="160" y="329" class="st10" width="29" height="29"/>
	<rect x="160" y="313" class="st10" width="14" height="14"/>
	<rect x="175" y="313" class="st10" width="14" height="14"/>
	<rect x="98" y="267" class="st10" width="29" height="29"/>
	<rect x="129" y="282" class="st10" width="14" height="14"/>
	<rect x="98" y="251" class="st10" width="14" height="14"/>
	<rect x="82" y="282" class="st10" width="14" height="14"/>
	<rect x="67" y="298" class="st10" width="29" height="29"/>
	<rect x="82" y="329" class="st10" width="14" height="14"/>
	<rect x="51" y="313" class="st10" width="14" height="14"/>
	<rect x="35" y="298" class="st10" width="14" height="14"/>
	<rect x="284" y="484" class="st10" width="14" height="14"/>
	<rect x="284" y="500" class="st10" width="14" height="14"/>
	<rect x="191" y="344" class="st10" width="14" height="14"/>
</g>
<g id="Layer_4">
	<rect x="299.8" y="468.1" class="st10" width="60" height="60"/>
	<rect x="299.8" y="437.1" class="st10" width="29" height="29"/>
	<rect x="299.8" y="421.1" class="st10" width="14" height="14"/>
	<rect x="314.8" y="421.1" class="st10" width="14" height="14"/>
	<rect x="283.8" y="468.1" class="st10" width="14" height="14"/>
	<rect x="330.8" y="437.1" class="st10" width="29" height="29"/>
	<rect x="361.8" y="437.1" class="st10" width="29" height="29"/>
	<rect x="330.8" y="406.1" class="st10" width="29" height="29"/>
	<rect x="314.8" y="406.1" class="st10" width="14" height="14"/>
	<rect x="361.8" y="421.1" class="st10" width="14" height="14"/>
	<rect x="361.8" y="406.1" class="st10" width="14" height="14"/>
	<rect x="345.8" y="390.1" class="st10" width="14" height="14"/>
	<rect x="376.8" y="421.1" class="st10" width="14" height="14"/>
	<rect x="361.8" y="483.1" class="st10" width="14" height="14"/>
	<rect x="361.8" y="468.1" class="st10" width="14" height="14"/>
	<rect x="376.8" y="468.1" class="st10" width="14" height="14"/>
	<rect x="361.8" y="499.1" class="st10" width="14" height="14"/>
	<rect x="361.8" y="530.1" class="st10" width="29" height="29"/>
	<rect x="361.8" y="514.1" class="st10" width="14" height="14"/>
	<rect x="345.8" y="530.1" class="st10" width="14" height="14"/>
	<rect x="283.8" y="452.1" class="st10" width="14" height="14"/>
	<rect x="329.8" y="530.1" class="st10" width="14" height="14"/>
</g>
<g id="Layer_5">
	<rect x="253" y="330" class="st10" width="60" height="60"/>
	<rect x="283.9" y="391.5" class="st10" width="29" height="29"/>
	<rect x="284" y="422" class="st10" width="14" height="14"/>
	<rect x="284" y="437" class="st10" width="14" height="14"/>
	<rect x="268" y="406.5" class="st10" width="14" height="14"/>
	<rect x="268" y="391.5" class="st10" width="14" height="14"/>
	<rect x="253" y="391.5" class="st10" width="14" height="14"/>
	<rect x="315" y="391.5" class="st10" width="14" height="14"/>
	<rect x="330" y="391.5" class="st10" width="14" height="14"/>
	<rect x="314.9" y="360.5" class="st10" width="29" height="29"/>
	<rect x="314.9" y="330" class="st10" width="29" height="29"/>
	<rect x="221.9" y="330" class="st10" width="29" height="29"/>
	<rect x="237" y="375.5" class="st10" width="14" height="14"/>
	<rect x="237" y="360.5" class="st10" width="14" height="14"/>
	<rect x="222" y="360.5" class="st10" width="14" height="14"/>
	<rect x="206" y="344.5" class="st10" width="14" height="14"/>
	<rect x="206" y="329.5" class="st10" width="14" height="14"/>
	<rect x="191" y="329.5" class="st10" width="14" height="14"/>
	<rect x="221.9" y="300" class="st10" width="29" height="29"/>
	<rect x="252.9" y="300" class="st10" width="29" height="29"/>
	<rect x="298" y="314.5" class="st10" width="14" height="14"/>
	<rect x="283" y="314.5" class="st10" width="14" height="14"/>
	<rect x="314" y="299.5" class="st10" width="14" height="14"/>
	<rect x="298" y="299.5" class="st10" width="14" height="14"/>
	<rect x="314" y="314.5" class="st10" width="14" height="14"/>
	<rect x="329" y="299.5" class="st10" width="14" height="14"/>
	<rect x="314" y="283.5" class="st10" width="14" height="14"/>
	<rect x="329" y="283.5" class="st10" width="14" height="14"/>
	<rect x="190.9" y="300" class="st10" width="29" height="29"/>
	<rect x="190.9" y="269" class="st10" width="29" height="29"/>
	<rect x="159.9" y="269" class="st10" width="29" height="29"/>
	<rect x="175" y="253.5" class="st10" width="14" height="14"/>
	<rect x="160" y="253.5" class="st10" width="14" height="14"/>
	<rect x="191" y="253.5" class="st10" width="14" height="14"/>
	<rect x="175" y="298.5" class="st10" width="14" height="14"/>
</g>
<g id="Layer_6">
	<rect x="253" y="159" class="st10" width="60" height="60"/>
	<rect x="346" y="143" class="st10" width="14" height="14"/>
	<rect x="315" y="159" class="st10" width="60" height="60"/>
	<rect x="190" y="97" class="st10" width="60" height="60"/>
	<rect x="253" y="128" class="st10" width="29" height="29"/>
	<rect x="253" y="97" class="st10" width="29" height="29"/>
	<rect x="377" y="159" class="st10" width="29" height="29"/>
	<rect x="284" y="128" class="st10" width="29" height="29"/>
	<rect x="315" y="128" class="st10" width="29" height="29"/>
	<rect x="361" y="143" class="st10" width="14" height="14"/>
	<rect x="346" y="128" class="st10" width="14" height="14"/>
	<rect x="377" y="143" class="st10" width="14" height="14"/>
	<rect x="408" y="159" class="st10" width="14" height="14"/>
	<rect x="423" y="159" class="st10" width="14" height="14"/>
	<rect x="377" y="190" class="st10" width="14" height="14"/>
	<rect x="392" y="190" class="st10" width="14" height="14"/>
	<rect x="408" y="174" class="st10" width="14" height="14"/>
	<rect x="408" y="190" class="st10" width="14" height="14"/>
	<rect x="377" y="205" class="st10" width="14" height="14"/>
	<rect x="159" y="159" class="st10" width="29" height="29"/>
	<rect x="190" y="159" class="st10" width="29" height="29"/>
	<rect x="221" y="159" class="st10" width="29" height="29"/>
	<rect x="221" y="190" class="st10" width="29" height="29"/>
	<rect x="159" y="190" class="st10" width="29" height="29"/>
	<rect x="159" y="128" class="st10" width="29" height="29"/>
	<rect x="143" y="143" class="st10" width="14" height="14"/>
	<rect x="143" y="128" class="st10" width="14" height="14"/>
	<rect x="143" y="174" class="st10" width="14" height="14"/>
	<rect x="143" y="159" class="st10" width="14" height="14"/>
	<rect x="190" y="190" class="st10" width="14" height="14"/>
	<rect x="205" y="190" class="st10" width="14" height="14"/>
	<rect x="159" y="112" class="st10" width="14" height="14"/>
	<rect x="174" y="112" class="st10" width="14" height="14"/>
	<rect x="128" y="112" class="st10" width="14" height="14"/>
	<rect x="143" y="112" class="st10" width="14" height="14"/>
	<rect x="159" y="97" class="st10" width="14" height="14"/>
	<rect x="143" y="97" class="st10" width="14" height="14"/>
	<rect x="128" y="128" class="st10" width="14" height="14"/>
	<rect x="221" y="82" class="st10" width="14" height="14"/>
	<rect x="236" y="82" class="st10" width="14" height="14"/>
	<rect x="284" y="112" class="st10" width="14" height="14"/>
	<rect x="346" y="221" class="st10" width="14" height="14"/>
	<rect x="361" y="221" class="st10" width="14" height="14"/>
</g>
<g id="Layer_7">
	<rect x="411" y="327" class="st10" width="60" height="60"/>
	<rect x="473" y="296" class="st10" width="14" height="14"/>
	<rect x="442" y="389" class="st10" width="29" height="29"/>
	<rect x="442" y="420" class="st10" width="29" height="29"/>
	<rect x="488" y="296" class="st10" width="14" height="14"/>
	<rect x="504" y="265" class="st10" width="14" height="14"/>
	<rect x="442" y="451" class="st10" width="14" height="14"/>
	<rect x="426" y="389" class="st10" width="14" height="14"/>
	<rect x="504" y="280" class="st10" width="14" height="14"/>
	<rect x="473" y="342" class="st10" width="14" height="14"/>
	<rect x="411" y="389" class="st10" width="14" height="14"/>
	<rect x="426" y="404" class="st10" width="14" height="14"/>
	<rect x="426" y="420" class="st10" width="14" height="14"/>
	<rect x="473" y="357" class="st10" width="14" height="14"/>
	<rect x="380" y="358" class="st10" width="29" height="29"/>
	<rect x="411" y="296" class="st10" width="29" height="29"/>
	<rect x="380" y="327" class="st10" width="29" height="29"/>
	<rect x="426" y="435" class="st10" width="14" height="14"/>
	<rect x="457" y="249" class="st10" width="14" height="14"/>
	<rect x="426" y="466" class="st10" width="14" height="14"/>
	<rect x="426" y="451" class="st10" width="14" height="14"/>
	<rect x="395" y="311" class="st10" width="14" height="14"/>
	<rect x="457" y="311" class="st10" width="14" height="14"/>
	<rect x="411" y="280" class="st10" width="14" height="14"/>
	<rect x="426" y="280" class="st10" width="14" height="14"/>
	<rect x="457" y="265" class="st10" width="14" height="14"/>
	<rect x="426" y="249" class="st10" width="14" height="14"/>
	<rect x="442" y="280" class="st10" width="14" height="14"/>
	<rect x="395" y="296" class="st10" width="14" height="14"/>
	<rect x="442" y="249" class="st10" width="14" height="14"/>
	<rect x="426" y="265" class="st10" width="14" height="14"/>
	<rect x="442" y="265" class="st10" width="14" height="14"/>
	<rect x="504" y="249" class="st10" width="14" height="14"/>
	<rect x="473" y="311" class="st10" width="14" height="14"/>
	<rect x="473" y="327" class="st10" width="14" height="14"/>
	<rect x="457" y="234" class="st10" width="14" height="14"/>
	<rect x="426" y="234" class="st10" width="14" height="14"/>
	<rect x="442" y="234" class="st10" width="14" height="14"/>
	<rect x="457" y="218" class="st10" width="14" height="14"/>
	<rect x="442" y="218" class="st10" width="14" height="14"/>
	<rect x="442" y="544" class="st10" width="14" height="14"/>
	<rect x="426" y="482" class="st10" width="14" height="14"/>
	<rect x="426" y="497" class="st10" width="14" height="14"/>
	<rect x="426" y="513" class="st10" width="14" height="14"/>
	<rect x="426" y="528" class="st10" width="14" height="14"/>
	<rect x="426" y="559" class="st10" width="14" height="14"/>
	<rect x="426" y="544" class="st10" width="14" height="14"/>
	<rect x="442" y="466" class="st10" width="14" height="14"/>
	<rect x="442" y="482" class="st10" width="14" height="14"/>
	<rect x="442" y="497" class="st10" width="14" height="14"/>
	<rect x="442" y="513" class="st10" width="14" height="14"/>
	<rect x="442" y="528" class="st10" width="14" height="14"/>
	<rect x="410" y="482" class="st10" width="14" height="14"/>
	<rect x="410" y="497" class="st10" width="14" height="14"/>
	<rect x="442" y="559" class="st10" width="14" height="14"/>
</g>
</svg>
