<svg xmlns="http://www.w3.org/2000/svg" xmlns:xlink="http://www.w3.org/1999/xlink" version="1.1" id="Layer_1" x="0px" y="0px" width="91px" height="91px" viewBox="4.55 -9.1 91.0 122.85" enable-background="new 0 0 91 91" xml:space="preserve">
<defs>
  <style>
    * {
      stroke: #369;
      fill: #eee;
    }
  </style>
</defs>
<path d="M82.792,56.789l-16.827-6.991c4.052-7.697,10.989-11.875,10.989-11.875c-12.181,4.512-16.808,12.46-16.808,12.46  c5.117-30.073,21.68-46.4,21.68-46.4C53.813,22.671,49.428,56.827,49.428,56.827C47.967,26.11,25.07,15.583,25.07,15.583  c11.447,19.979,6.333,33.94,6.333,33.94C18.98,35.346,8.019,34.702,8.019,34.702c16.565,10.31,16.945,25.993,16.945,25.993  l19.959,10.88l18.39-13.587c0.387-2.923,1.303-5.549,2.483-7.868l9.173,5.892L44.922,78.112L8.484,58.117L44.922,86.21l37.87-29.197  l-0.327-0.11L82.792,56.789z"/>
</svg>
