<svg xmlns="http://www.w3.org/2000/svg" viewBox="0 0 263 324">
<defs><style>.cls-1{fill:#aaa;}</style></defs>
<title>Asset 1</title>
<g id="Layer_2" data-name="Layer 2">
<g id="Layer_3" data-name="Layer 3">
<rect class="cls-1" x="125" y="109" width="60" height="60"/>
<rect class="cls-1" x="125" y="171" width="60" height="60"/>
<rect class="cls-1" x="187" y="171" width="60" height="60"/>
<rect class="cls-1" x="63" y="47" width="60" height="60"/>
<rect class="cls-1" x="187" y="124" width="14" height="14"/>
<rect class="cls-1" x="187" y="233" width="60" height="60"/>
<rect class="cls-1" x="156" y="233" width="29" height="29"/>
<rect class="cls-1" x="156" y="264" width="29" height="29"/>
<rect class="cls-1" x="187" y="140" width="29" height="29"/>
<rect class="cls-1" x="94" y="109" width="29" height="29"/>
<rect class="cls-1" x="218" y="155" width="14" height="14"/>
<rect class="cls-1" x="109" y="140" width="14" height="14"/>
<rect class="cls-1" x="78" y="109" width="14" height="14"/>
<rect class="cls-1" x="140" y="233" width="14" height="14"/>
<rect class="cls-1" x="140" y="248" width="14" height="14"/>
<rect class="cls-1" x="140" y="264" width="14" height="14"/>
<rect class="cls-1" x="171" y="295" width="14" height="14"/>
<rect class="cls-1" x="187" y="295" width="29" height="29"/>
<rect class="cls-1" x="218" y="295" width="29" height="29"/>
<rect class="cls-1" x="125" y="78" width="29" height="29"/>
<rect class="cls-1" x="125" y="62" width="14" height="14"/>
<rect class="cls-1" x="140" y="62" width="14" height="14"/>
<rect class="cls-1" x="63" y="16" width="29" height="29"/>
<rect class="cls-1" x="94" y="31" width="14" height="14"/>
<rect class="cls-1" x="63" width="14" height="14"/>
<rect class="cls-1" x="47" y="31" width="14" height="14"/>
<rect class="cls-1" x="32" y="47" width="29" height="29"/>
<rect class="cls-1" x="47" y="78" width="14" height="14"/>
<rect class="cls-1" x="16" y="62" width="14" height="14"/>
<rect class="cls-1" y="47" width="14" height="14"/>
<rect class="cls-1" x="249" y="233" width="14" height="14"/>
<rect class="cls-1" x="249" y="249" width="14" height="14"/>
<rect class="cls-1" x="156" y="93" width="14" height="14"/>
</g></g>
</svg>