<svg xmlns="http://www.w3.org/2000/svg" viewBox="0 0 284.33 169.01"><defs><style>.cls-1{fill:none;stroke:#000;stroke-linecap:round;stroke-linejoin:round;stroke-width:2px;}</style></defs><title>central-sands</title><g id="Layer_2" data-name="Layer 2"><g id="Layer_3" data-name="Layer 3"><polygon class="cls-1" points="9 92.55 5.14 86.91 2.76 81.61 1.5 77.28 1 74.55 1.43 62.88 5.1 52.58 10.47 43.76 16 36.55 31.82 20.88 47.49 10.62 60.16 4.82 67 2.55 73.92 1.19 86.8 1 147 9.55 204.71 22.9 224.26 29.79 241 37.55 252.63 44.09 261.15 50.04 267.34 55.74 272 61.55 280.95 80.97 283.33 98.98 282.29 112.52 281 118.55 273.79 134.67 264.51 146.47 255.48 154.31 249 158.55 243.44 161.36 232.19 165.4 216.6 168.01 198 166.55 180.14 159.24 149.15 135.37 124 122.55 102 115.55 87.77 112.62 47 107.55 30.07 103.75 19.22 99.92 12.76 96.16 9 92.55 9 92.55"/></g></g></svg>