<svg xmlns="http://www.w3.org/2000/svg" viewBox="0 0 148.12 334.95"><defs><style>.cls-1{fill:none;stroke:#000;stroke-linecap:round;stroke-linejoin:round;stroke-width:2px;}</style></defs><title>coastal</title><g id="Layer_2" data-name="Layer 2"><g id="Layer_2-2" data-name="Layer 2"><polygon class="cls-1" points="11.1 333.95 1 309.32 9.42 286.44 27.77 271.43 38.45 248.2 26.38 205.24 26.93 183.32 34.12 163.2 23.19 141.76 22.57 117.21 50.47 82.59 58.64 81.84 58.24 90.13 61.14 90.92 70.68 84.49 80.29 77.91 84.87 67.79 96.6 53.11 121.7 24.32 126.56 16.04 129.54 12.87 133.7 9.8 135.1 5.95 137.77 3.46 146.16 1 147.12 6.23 146.1 9.95 144.65 10.1 143.1 9.95 142.81 11.71 142.46 13.37 140.06 15.15 139.89 17.96 138.75 21.92 135.81 24.37 134.85 28.85 127.74 43.55 123.88 52.82 118.37 62.37 101.67 102.22 98.18 113.51 99.88 123.9 101.37 131.61 98.95 136.06 94.09 138.33 88.28 145.79 87.92 149.36 86.09 153.82 82.13 175.52 84.76 193.73 76.08 212.71 75.25 218.4 72.24 223.23 69.39 234.02 68.95 256.96 69.83 267.76 69.1 272.95 71.86 277.79 72.31 287.54 75.97 296.63 78.1 299.95 78.25 304.77 76.32 313.43 75.22 324.05 75.79 332.42 67.1 333.08 56.13 332.86 32.35 333.64 11.1 333.95 11.1 333.95"/></g></g></svg>