<svg xmlns="http://www.w3.org/2000/svg" viewBox="0 0 245.32 266.27"><defs><style>.cls-1{fill:none;stroke:#000;stroke-linecap:round;stroke-linejoin:round;stroke-width:2px;}</style></defs><title>wisconsin-river</title><g id="Layer_2" data-name="Layer 2"><g id="Layer_4" data-name="Layer 4"><polygon class="cls-1" points="196.75 2.79 203.72 4.24 211.53 6.61 215.6 8.35 219.71 10.57 223.78 13.36 227.75 16.79 231.08 20.36 236.16 27.59 239.43 34.17 242.01 41.72 243.05 46.55 244.32 60.48 243.77 76.14 240.24 96.09 235.46 111.1 232.1 118.67 230.04 122.17 227.61 125.53 224.75 128.79 221.72 131.64 218.75 133.86 192.75 145.79 168.06 160.07 139.1 182.74 126.35 196.65 115.75 205.79 63.75 239.79 44.98 255.12 38.23 263.28 37.5 263.88 36.69 264.38 35.75 264.79 32.54 265.27 29.09 264.64 25.52 263.09 21.94 260.8 18.46 257.94 12.26 251.25 9.75 247.79 6.16 241.16 3.89 234.8 1.75 223.79 1 211.66 1.75 202.79 3.82 195.97 7.4 190.04 12.46 184.56 77.46 132.45 86.31 123.3 93.01 113.96 97.81 104.06 102.88 87.09 112.38 63.2 122.52 44.99 140.71 19.91 147.76 12.43 151.43 9.46 155.38 6.93 159.75 4.79 165.22 2.85 170.56 1.62 175.72 1 185.27 1.08 196.75 2.79 196.75 2.79"/></g></g></svg>